<svg width="312" height="175" fill="none" xmlns="http://www.w3.org/2000/svg"><path d="M195.758 139.402l1.303-4.283 16.284.411 10.352-7.831s-5.415 12.845-12.568 17.208a7.458 7.458 0 00-5.418-5.242l-.486-.12-9.467-.143z" fill="#655CFF" stroke="#655CFF" stroke-width=".486" stroke-linecap="round" stroke-linejoin="round"/><path d="M209.514 139.876l1.604-4.757" stroke="#fff" stroke-width=".486" stroke-linecap="round" stroke-linejoin="round"/><path d="M240.777 146.604c-.046.243-.093.471-.144.702-1.944 9.057-10.074 15.449-19.337 15.449h-18.38s9.166-4.375 12.355-7.617l.272-2.412s15.815-17.101 14.809-35.345c0 0-.486-2.824.178-4.433.663-1.609 1.609-5.257.666-6.392l2.999-9.924s.345-2.064-3.483-2.064c-3.828 0-1.437-8.397-1.437-8.397l12.749-1.675 9.088 10.279 1.57 11.226-11.91 40.45" fill="#655CFF"/><path d="M171.723 151.924s7.724-7.826 13.11-6.2c5.386 1.626-.197 15.324-.197 15.324" stroke="#000" stroke-width=".486" stroke-linecap="round" stroke-linejoin="round"/><path d="M211.116 144.907a7.494 7.494 0 00-6.879-5.213l-12.984-.448a18.863 18.863 0 00-8.606 1.746l-8.901 4.132 5.629-10.005" stroke="#000" stroke-width=".486" stroke-linecap="round" stroke-linejoin="round"/><path d="M194.283 148.065s9.594.882 18.193-3.86c0 0-1.215 7.194 1.791 11.093a.577.577 0 001.004-.161c.151-.439.272-1.178.272-2.411m-.64 2.769s-5.692 5.252-13.008 6.805m10.58-18.095s5.084-2.474 11.584-17.352m-39.877-2.623h41.402l-12.061 9.497h-41.8l12.459-9.497zm-14.134 32.648s3.626-5.262.214-7.822a3.962 3.962 0 00-1.529-.683l-.807-.172a.563.563 0 01-.315-.195.563.563 0 01-.123-.35v-.607a.279.279 0 00-.352-.27l-5.425 1.485" stroke="#000" stroke-width=".486" stroke-linecap="round" stroke-linejoin="round"/><path d="M163.156 147.875l6.726-11.725s1.718 1.264 8.344 1.013m-8.343-1.013l7.202-11.154" stroke="#000" stroke-width=".486" stroke-linecap="round" stroke-linejoin="round"/><path d="M254.119 90.317c2.404 22.004 0 53.149 0 53.149-10.175.065-13.342 2.576-13.342 2.576s-1.215-11.039-2.326-25.278c-1.11-14.238 1.114-15.4 1.114-15.4" fill="#655CFF"/><path d="M240.778 146.451s-.605.972 5.131 1.013l-.022-2.844s-3.403.596-5.109 1.831z" fill="#000" stroke="#000" stroke-width=".486" stroke-linecap="round" stroke-linejoin="round"/><path d="M253.399 144.62l-.717 9.013" stroke="#000" stroke-width=".486" stroke-linecap="round" stroke-linejoin="round"/><path d="M243.459 162.755s.202-5.97 2.45-9.122h6.774s1.016 5.488 7.173 5.712c6.156.223 5.857 3.402 5.857 3.402l-22.254.008z" fill="#000" stroke="#000" stroke-width=".486" stroke-linecap="round" stroke-linejoin="round"/><path d="M245.887 144.62l.022 9.013" stroke="#000" stroke-width=".486" stroke-linecap="round" stroke-linejoin="round"/><path d="M230.258 94.775s4.723-8.206 5.765-9.407c0 0 7.759 7.623 26.868 4.645a42.347 42.347 0 0111.061-.243l8.928.972s-5.333-10.77.646-16.462l-46.365-1.667a18.488 18.488 0 00-12.576 4.285c-3.942 3.318-8.808 8.867-12.753 17.877" fill="#655CFF"/><path d="M230.258 94.775s4.723-8.206 5.765-9.407c0 0 7.759 7.623 26.868 4.645a42.347 42.347 0 0111.061-.243l8.928.972s-5.333-10.77.646-16.462l-46.365-1.667a18.488 18.488 0 00-12.576 4.285c-3.942 3.318-8.808 8.867-12.753 17.877" stroke="#655CFF" stroke-width=".486" stroke-linecap="round" stroke-linejoin="round"/><path d="M231.195 106.556s1.653 1.283-.462 5.845a6.206 6.206 0 00-.449 2.854 40.04 40.04 0 01-.781 10.755c-4.238 19.503-15.857 28.33-15.857 28.33" stroke="#000" stroke-width=".486" stroke-linecap="round" stroke-linejoin="round"/><path d="M282.879 90.723s2.071.906 2.873-9.48l-5.022 1.422s.319 4.866 2.149 8.058zm10.23-11.244c2.934 2.16 8.233 1.254 8.233 1.254l1.84-20.295s-1.643-1.181-3.612 4.27a45.198 45.198 0 01-2.013 4.781 10.877 10.877 0 01-3.257 3.89l-1.191.882v5.218z" fill="#000" stroke="#000" stroke-width=".486" stroke-linecap="round" stroke-linejoin="round"/><path d="M237.114 86.59c2.53 2.696 9.236 9.084 17.624 11.15 0 0-.16-2.65-.542-6.699 0 0-10.745-.41-16.895-4.666a.143.143 0 00-.187.216z" fill="#000"/><path d="M283.526 74.26h9.583v5.22l-1.042.142c-.856.12-1.702.297-2.533.533l-8.804 2.51" stroke="#000" stroke-width=".486" stroke-linecap="round" stroke-linejoin="round"/><path d="M169.112 160.849s-.598-1.215-1.702-1.626c-.707-.265-1.215-1.653-1.976-1.595-.76.059-1.616-.034-2.08-.629-.63-.812-.158-1.964.068-2.965.486-2.188-.221-5.173-2.239-6.077a1.778 1.778 0 00-.427-.133c-1.43-.256-3.554.571-4.706 1.37-.807.559-1.439 1.344-2.263 1.877-3.16 2.049-9.708-.652-10.937 1.859 0 0 5.043 1.087 7.632 3.942 0 0 1.363 1.332 1.779 1.86.415.527 1.55 1.915 3.016 2.401 1.466.486 2.751.272 4.006 0 1.254-.272 8.883-.267 9.829-.284zm3.846-10.072s.79 4.718-2.917 6.101c0 0 1.988-3.175 1.675-4.954l1.242-1.147z" fill="#000"/><path d="M185.666 125.883h33.887m-35.961 1.816h33.887m-35.959 1.813h33.886m-35.961 1.816h33.887m-24.095-5.445l-7.717 5.445m11.576-5.445l-7.719 5.445m11.576-5.445l-7.717 5.445m11.579-5.445l-7.717 5.445m11.577-5.445l-7.72 5.445m11.576-5.445l-7.717 5.445m11.577-5.445l-7.717 5.445m11.574-5.445l-7.717 5.445m-24.349-7.097l8.02-28.64a1.122 1.122 0 011.077-.816h39.601a1.122 1.122 0 01.896.45 1.105 1.105 0 01.176.987l-8.371 28.019h-41.399zm-35.725-43.233l56.457 13.777m-126.35 34.9l105.618-5.445" stroke="#000" stroke-width=".486" stroke-linecap="round" stroke-linejoin="round"/><path d="M196.498 98.481l-1.203 1.14.644.943m4.6-2.022l.593 1.138-1.15.945m-1.949-2.083l.491 1.961m-7.702 19.161l-1.201 1.14.644.943m4.597-2.023l.59 1.14-1.149.943m-1.946-2.083l.491 1.964m1.601-17.232h21.763m-22.788 3.828h13.31m-14.338 3.828h16.365m-17.39 3.828h7.676" stroke="#000" stroke-width=".486" stroke-linecap="round" stroke-linejoin="round"/><path d="M239.565 105.357s-3.182 3.07-1.424 12.821c1.757 9.752 2.289 27.196 2.289 27.196" stroke="#fff" stroke-width=".486" stroke-linecap="round" stroke-linejoin="round"/><path d="M197.061 135.119h16.494l12.029-9.464v-1.425l-12.061 9.497.032 1.392h-41.832v-1.392" stroke="#000" stroke-width=".486" stroke-linecap="round" stroke-linejoin="round"/><path d="M8.895 162.288H303.18V43.818a14.925 14.925 0 00-14.916-14.926h-15.767" stroke="#000" stroke-width=".486" stroke-linecap="round" stroke-linejoin="round"/><path d="M142.839 152.935s-.399 2.173-5.615 2.586c-5.216.413-32.061-5.269-33.298 6.767h69.859l-2.317-1.748a20.145 20.145 0 00-8.472-3.728l-1.984-.367" fill="#000"/><path d="M283.135 140.895s2.294-14.931 12.867-17.588c0 0 1.106 8.935-9.19 17.588" fill="#655CFF"/><path d="M293.476 127.437l-8.427 13.458m5.267-12.965l.623 3.561m-2.824 4.508l3.325-1.191" stroke="#fff" stroke-width=".486" stroke-linecap="round" stroke-linejoin="round"/><path d="M283.511 140.929c-2.431-3.192-5.445-6.113-9.21-7.504-3.492-1.29-7.729-1.013-10.609 1.279a.288.288 0 00.022.464c.05.033.11.051.17.049 1.306-.05 2.611.115 3.864.486 1.262.379 2.453.972 3.7 1.395 1.58.547 3.24.841 4.822 1.378 1.582.537 2.494 1.062 3.483 2.409l3.758.044z" fill="#655CFF"/><path d="M269.604 133.68s8.285.666 12.993 7.214" stroke="#fff" stroke-width=".486" stroke-linecap="round" stroke-linejoin="round"/><path d="M45.135 127.006a15.686 15.686 0 01-14.671 20.781 15.685 15.685 0 11-.156-31.368l.037.051a29.424 29.424 0 0014.379 10.405l.41.131z" fill="#655CFF" stroke="#655CFF" stroke-width=".486" stroke-linecap="round" stroke-linejoin="round"/><path d="M290.665 140.895h-15.06v21.464h15.06v-21.464z" stroke="#000" stroke-width=".486" stroke-linecap="round" stroke-linejoin="round"/><path d="M278.707 125.319a2.785 2.785 0 10.001-5.57 2.785 2.785 0 00-.001 5.57z" fill="#655CFF"/><path d="M278.709 122.534s4.713 7.049 4.426 18.36" stroke="#000" stroke-width=".486" stroke-linecap="round" stroke-linejoin="round"/><path d="M271.178 135.712l5.746.287m.799-.287l.581 1.109" stroke="#fff" stroke-width=".486" stroke-linecap="round" stroke-linejoin="round"/><path d="M61.038 130.093c22.842 0 41.358-18.517 41.358-41.358 0-22.842-18.516-41.358-41.358-41.358S19.68 65.892 19.68 88.734c0 22.841 18.516 41.358 41.358 41.358z" stroke="#000" stroke-width=".486" stroke-linecap="round" stroke-linejoin="round"/><path d="M61.037 47.377h11.667a41.358 41.358 0 110 82.714H61.037" stroke="#000" stroke-width=".486" stroke-linecap="round" stroke-linejoin="round"/><path d="M49.957 68.906h19.855a9.915 9.915 0 019.912 9.914v0a9.915 9.915 0 01-9.914 9.915H49.957V68.906z" stroke="#000" stroke-width=".486" stroke-linecap="round" stroke-linejoin="round"/><path d="M49.957 88.735h19.855a9.914 9.914 0 019.912 9.914v0a9.915 9.915 0 01-9.914 9.914H49.957V88.735zm0-19.829V61.72m8.455 7.186V61.72m-8.455 54.028v-7.187m8.455 7.187v-7.187m-16.064 0h9.51m-9.51-39.655h9.51m40.494 46.842h11.657m-2.814-17.099h7.073m-15.916-36.93h11.657" stroke="#000" stroke-width=".486" stroke-linecap="round" stroke-linejoin="round"/><path d="M37.548 26.104l5.23 3.138c7.552 4.543 8.459 16.897 2.023 27.633S27.029 72.603 19.477 68.073l-3.85-2.43" fill="#655CFF"/><path d="M37.548 26.104l5.23 3.138c7.552 4.543 8.459 16.897 2.023 27.633S27.029 72.603 19.477 68.073l-3.85-2.43" stroke="#000" stroke-width=".486" stroke-linecap="round" stroke-linejoin="round"/><path d="M39.57 53.727c6.434-10.723 5.53-23.09-2.023-27.621-7.551-4.532-18.89.486-25.325 11.209-6.435 10.722-5.53 23.089 2.022 27.62 7.551 4.533 18.89-.486 25.325-11.208z" fill="#655CFF" stroke="#000" stroke-width=".486" stroke-linecap="round" stroke-linejoin="round"/><path d="M49.09 42.479l-5.23-3.138m2.81-2.793l-3.33-1.995m2.665 20.115l-5.148-3.09m1.399 8.931l-5.23-3.14" stroke="#000" stroke-width=".486" stroke-linecap="round" stroke-linejoin="round"/><path d="M127 58.226l-3.998 2.4c-5.77 3.463-6.463 12.91-1.546 21.104 4.917 8.193 13.58 12.029 19.352 8.565l2.941-1.86" fill="#655CFF"/><path d="M127 58.226l-3.998 2.4c-5.77 3.463-6.463 12.91-1.546 21.104 4.917 8.193 13.58 12.029 19.352 8.565l2.941-1.86" stroke="#000" stroke-width=".486" stroke-linecap="round" stroke-linejoin="round"/><path d="M144.806 87.89c5.769-3.463 6.461-12.911 1.544-21.104S132.77 54.76 127 58.222c-5.77 3.462-6.461 12.911-1.545 21.104 4.917 8.193 13.581 12.027 19.351 8.564z" fill="#655CFF" stroke="#000" stroke-width=".486" stroke-linecap="round" stroke-linejoin="round"/><path d="M118.18 70.739l3.996-2.397m-2.147-2.133l2.545-1.527m-2.037 15.371l3.933-2.36m-1.07 6.822l3.999-2.399m5.056 8.886l3.952-2.372m-7.647.669l1.794-1.077" stroke="#000" stroke-width=".486" stroke-linecap="round" stroke-linejoin="round"/><path d="M131.971 61.444l.785 13.176 7.044 1.536 2.765-6.504-10.594-8.208z" stroke="#fff" stroke-width=".486" stroke-linecap="round" stroke-linejoin="round"/><path d="M133.541 76.096l6.913 1.286 2.792-6.454V82.63l-9.705-6.533zm9.703 6.536l-2.793-5.25m-.651-1.226l-7.829-14.712m.783 13.176l3.383-5.342 6.427.374M21.28 35.345l12.107 3.979-17.76 12.748 12.248 4.025m-.587-22.356l-1.06 3.23m3.131-2.549l-1.062 3.23m-7.581 16.093l-1.062 3.23m3.131-2.55l-1.062 3.23" stroke="#fff" stroke-width=".486" stroke-linecap="round" stroke-linejoin="round"/><path d="M172.445 27.49c8.461-3.89 17.233-5.372 26.391-7.073 2.737-.504 5.506-1.01 8.286-.859.972.054 2.037.229 2.703.948.768.827.756 2.159.267 3.177-.488 1.019-1.363 1.79-2.231 2.513-7.493 6.264-16.059 11.135-23.642 17.289-2.445 1.983-4.893 4.266-5.753 7.292-.124.435-.173.991.194 1.259.324.243.776.097 1.15-.054 8.368-3.388 16.608-8.176 25.635-8.055.467 0 .972.044 1.315.367.804.776-.161 2.064-1.065 2.72a205.47 205.47 0 01-7.889 5.46c-2.484 1.628-4.669 2.916-6.186 5.465-.676 1.138-.447 2.312-.18 2.674 0 0 1.162 2.785 10.41-2.136 9.248-4.922 1.612 7.945 1.612 7.945" stroke="#000" stroke-width=".486" stroke-linecap="round" stroke-linejoin="round"/><path d="M212.797 12.245h-40.352v54.192h40.352V12.245zm-40.354 23.603h-10.886v24.836h10.886V35.848z" stroke="#000" stroke-width=".486" stroke-linecap="round" stroke-linejoin="round"/><path d="M170.193 35.848v24.838h2.251V35.848" fill="#000"/><path d="M170.193 35.848v24.838h2.251V35.848" stroke="#000" stroke-width=".486" stroke-linecap="round" stroke-linejoin="round"/><path d="M258.969 73.286c8.346 0 15.113-6.766 15.113-15.113s-6.767-15.113-15.113-15.113c-8.347 0-15.114 6.766-15.114 15.113s6.767 15.113 15.114 15.113z" fill="#000" stroke="#000" stroke-width=".486" stroke-linecap="round" stroke-linejoin="round"/><path d="M272.49 28.893l-13.519-13.519-13.519 13.52 13.519 13.518 13.519-13.519z" fill="#655CFF"/></svg>